<?xml version="1.0" encoding="utf-8"?>
<!-- Generator: Adobe Illustrator 23.0.1, SVG Export Plug-In . SVG Version: 6.00 Build 0)  -->
<svg version="1.1" xmlns="http://www.w3.org/2000/svg" xmlns:xlink="http://www.w3.org/1999/xlink" x="0px" y="0px"
	 viewBox="0 0 500 500" style="enable-background:new 0 0 500 500;" xml:space="preserve">
<style type="text/css">
	.st0{fill:#2097D3;}
	.st1{fill:#FFFFFF;}
	.st2{fill:none;}
	.st3{fill:#FFFFFF;stroke:#2097D3;stroke-width:4;stroke-miterlimit:10;}
	.st4{fill:#FFFFFF;stroke:#2097D3;stroke-width:4;stroke-linecap:round;stroke-linejoin:round;stroke-miterlimit:10;}
</style>
<g id="BACKGROUND">
</g>
<g id="OBJECTS">
	<g>
		<g>
			<circle class="st0" cx="250" cy="250" r="167.57"/>
			<g>
				<path class="st0" d="M250,424.57c-96.26,0-174.57-78.31-174.57-174.57S153.74,75.43,250,75.43
					c96.26,0,174.57,78.31,174.57,174.57S346.26,424.57,250,424.57z M250,79.42c-94.06,0-170.58,76.52-170.58,170.58
					S155.94,420.58,250,420.58S420.58,344.05,420.58,250S344.06,79.42,250,79.42z"/>
			</g>
			<g>
				
					<ellipse transform="matrix(0.7071 -0.7071 0.7071 0.7071 -103.5532 249.9999)" class="st1" cx="250" cy="250" rx="119.75" ry="119.75"/>
			</g>
			<path id="SVGID_x5F_1_x5F_" class="st2" d="M153.05,167.26c45.69-53.55,126.14-59.91,179.69-14.22
				c53.55,45.69,59.91,126.14,14.21,179.69c-45.69,53.55-126.14,59.91-179.69,14.22C113.72,301.26,107.35,220.81,153.05,167.26z"/>
			<text>			<textPath  xlink:href="#SVGID_x5F_1_x5F_" startOffset="85.384%">
<tspan  class="st1" style="font-family:'BebasNeue-Regular'; font-size:46px; letter-spacing:59;">Elements</tspan>			</textPath>
</text>
			<path id="SVGID_x5F_2_x5F_" class="st2" d="M216.54,405.27c85.76,18.48,170.25-36.07,188.73-121.82
				c18.48-85.76-36.07-170.25-121.82-188.73C197.7,76.25,113.2,130.79,94.73,216.54C76.25,302.3,130.79,386.8,216.54,405.27z"/>
			<text>			<textPath  xlink:href="#SVGID_x5F_2_x5F_" startOffset="2477.4739%">
<tspan  class="st1" style="font-family:'BebasNeue-Regular'; font-size:46.3589px; letter-spacing:59;">By Zaid ajani</tspan>			</textPath>
</text>
		</g>
		<g>
			<g>
				<polygon class="st0" points="211.65,206.44 209.18,197.76 200.82,195.61 209.18,193.91 211.65,184.77 214.05,194.08 
					222.49,195.61 214.05,197.92 				"/>
				<polygon class="st0" points="163.9,222.19 162.66,217.86 158.49,216.79 162.66,215.94 163.9,211.38 165.09,216.02 169.3,216.79 
					165.09,217.94 				"/>
				<polygon class="st0" points="354.05,248.98 352.81,244.65 348.64,243.57 352.81,242.73 354.05,238.17 355.24,242.81 
					359.45,243.57 355.24,244.73 				"/>
				<polygon class="st0" points="225.89,334.69 224.66,330.36 220.49,329.28 224.66,328.44 225.89,323.88 227.09,328.52 
					231.3,329.28 227.09,330.44 				"/>
				<polygon class="st0" points="315.38,204.61 313.32,197.4 306.37,195.61 313.32,194.2 315.38,186.6 317.37,194.33 324.38,195.61 
					317.37,197.53 				"/>
				<polygon class="st0" points="252.53,160 251.3,155.67 247.12,154.6 251.3,153.75 252.53,149.19 253.72,153.83 257.94,154.6 
					253.72,155.75 				"/>
			</g>
			<g>
				<path class="st0" d="M273.36,168.68c0,0-104.53,128.54-13.92,158.37c9.05,2.98,18.78,2.98,27.83,0
					C377.88,297.22,273.36,168.68,273.36,168.68z"/>
				<g>
					<path class="st3" d="M267.85,252.32c-16.3-24.14-57.99-22.26-57.99-22.26s-41.69-1.88-57.99,22.26
						c-16.3,24.14,7.21,42.63,23.82,42.95s34.17,0,34.17,0s17.55,0.31,34.17,0C260.64,294.95,284.15,276.45,267.85,252.32z"/>
					<path class="st4" d="M167.2,246.24c0,0,29.31,12.32,79.92,0"/>
				</g>
				<g>
					<g>
						<path class="st3" d="M302.45,302.36c0,0,13-31.64,23.5-21.12c0,0,8.22,7.12,5.24,15.46c-2.97,8.34-27.46,8.41-27.46,8.41
							L302.45,302.36z"/>
						<path class="st3" d="M304.45,302.9c0,0,33.39,7.44,24.8,19.57c0,0-5.62,9.31-14.35,7.79c-8.73-1.52-12.95-25.63-12.95-25.63
							L304.45,302.9z"/>
						<path class="st3" d="M301.74,306.11c0,0,4.63,33.89-9.72,30.06c0,0-10.68-2.03-12.3-10.74c-1.61-8.71,19.53-21.06,19.53-21.06
							L301.74,306.11z"/>
						<path class="st3" d="M299.86,305.57c0,0-28.64,18.7-31.32,4.09c0,0-2.74-10.52,4.44-15.71c7.18-5.19,27.39,8.63,27.39,8.63
							L299.86,305.57z"/>
						<path class="st3" d="M299.87,302.9c0,0-25.85-22.4-12.54-28.99c0,0,9.36-5.52,16.33-0.05c6.96,5.48-0.76,28.71-0.76,28.71
							L299.87,302.9z"/>
						<path class="st3" d="M296.55,304.36c0,2.6,2.11,4.71,4.71,4.71c2.6,0,4.71-2.11,4.71-4.71c0-2.6-2.11-4.71-4.71-4.71
							C298.66,299.65,296.55,301.76,296.55,304.36z"/>
					</g>
				</g>
			</g>
		</g>
		<path class="st1" d="M139.54,336.47c0,2.98-2.42,5.39-5.39,5.39c-2.98,0-5.39-2.42-5.39-5.39c0-2.98,2.42-5.39,5.39-5.39
			C137.12,331.07,139.54,333.49,139.54,336.47z"/>
		<circle class="st1" cx="364.85" cy="336.47" r="5.39"/>
	</g>
</g>
</svg>
